# xmcd CD database file
#
# Track frame offsets:
#	150
#	11750
#	23062
#	36216
#	49145
#	60626
#	71383
#	85235
#	98999
#	110929
#	123354
#	136570
#	148376
#	160699
#	176142
#	191653
#	206673
#	217255
#	231133
#	240343
#
# Disc length: 3374 seconds
#
# Revision: 0
# Processed by: cddbd v1.5.2PL0 Copyright (c) Steve Scherf et al.
# Submitted via: CDex 1.70beta2
#
DISCID=230d2c14
DTITLE=Django Reinhardt and Stéphane Grappelli - Les Rois du Swing Manouche 1
DYEAR=2009
DGENRE=Jazz
TTITLE0=Tiger Rag
TTITLE1=I saw stars
TTITLE2=Confessin'
TTITLE3=Avalon
TTITLE4=Crazy Rythm
TTITLE5=Some of these days
TTITLE6=I've found a new baby
TTITLE7=It don't mean a thing
TTITLE8=Oriental shuffle
TTITLE9=Limehouse blues
TTITLE10=Shine
TTITLE11=Tears
TTITLE12=Rose room
TTITLE13=Body and soul
TTITLE14=Chicago
TTITLE15=Liebestraum n°3
TTITLE16=Mystery pacific
TTITLE17=The Sheik of Araby
TTITLE18=I've found a new baby
TTITLE19=Alabamy bound
EXTD=YEAR: 2009
EXTT0=
EXTT1=
EXTT2=
EXTT3=
EXTT4=
EXTT5=
EXTT6=
EXTT7=
EXTT8=
EXTT9=
EXTT10=
EXTT11=
EXTT12=
EXTT13=
EXTT14=
EXTT15=
EXTT16=
EXTT17=
EXTT18=
EXTT19=
PLAYORDER=
